<?xml version="1.0" standalone="no"?>
<!DOCTYPE svg PUBLIC "-//W3C//DTD SVG 20010904//EN"
 "http://www.w3.org/TR/2001/REC-SVG-20010904/DTD/svg10.dtd">
<svg version="1.0" xmlns="http://www.w3.org/2000/svg"
 width="512.000000pt" height="512.000000pt" viewBox="0 0 512.000000 512.000000"
 preserveAspectRatio="xMidYMid meet">

<g transform="translate(0.000000,512.000000) scale(0.100000,-0.100000)"
fill="#6d5dfc" stroke="none">
<path d="M420 4573 c-193 -33 -352 -178 -401 -365 -18 -68 -19 -132 -19 -1303
0 -1166 1 -1235 19 -1302 46 -176 177 -308 353 -354 69 -18 144 -19 2188 -19
2044 0 2119 1 2188 19 176 46 307 178 353 354 18 67 19 136 19 1302 0 1171 -1
1235 -19 1303 -42 159 -156 283 -319 345 l-57 22 -2140 1 c-1177 1 -2151 -1
-2165 -3z m4313 -213 c71 -27 141 -96 167 -168 20 -53 20 -71 18 -1305 l-3
-1252 -23 -43 c-33 -62 -96 -118 -158 -142 -55 -20 -64 -20 -2174 -20 -2110 0
-2119 0 -2174 20 -62 24 -125 80 -158 142 l-23 43 -3 1252 c-2 1234 -2 1252
18 1305 26 70 96 141 164 167 50 20 94 20 2173 20 2100 1 2123 1 2176 -19z"/>
<path d="M2474 3859 c-46 -13 -129 -92 -148 -140 -22 -54 -22 -143 -1 -197 22
-55 101 -125 159 -142 28 -8 46 -19 49 -31 3 -11 14 -19 27 -19 13 0 24 8 27
19 3 12 21 23 49 31 58 17 137 87 159 142 21 54 21 143 -1 197 -20 51 -102
127 -152 141 -44 12 -125 12 -168 -1z"/>
<path d="M2261 3375 c-36 -42 -38 -51 -11 -65 16 -8 26 -5 55 21 37 33 45 63
19 73 -26 10 -31 8 -63 -29z"/>
<path d="M2787 3403 c-24 -23 45 -109 77 -97 27 10 25 34 -5 69 -29 33 -57 44
-72 28z"/>
<path d="M2131 3254 c-33 -28 -39 -55 -17 -73 12 -10 22 -5 55 24 34 31 39 40
30 56 -13 26 -32 24 -68 -7z"/>
<path d="M2920 3265 c-11 -13 -8 -21 21 -51 38 -39 72 -42 77 -8 2 14 -8 30
-28 48 -36 30 -52 32 -70 11z"/>
<path d="M2541 3256 c-7 -8 -11 -36 -9 -63 3 -44 5 -48 28 -48 23 0 25 4 28
48 3 45 -9 77 -28 77 -4 0 -13 -6 -19 -14z"/>
<path d="M1992 3117 c-37 -38 -40 -52 -12 -67 16 -8 26 -4 55 21 24 21 35 39
33 53 -5 34 -39 31 -76 -7z"/>
<path d="M3057 3143 c-16 -15 -5 -43 28 -72 29 -26 39 -29 55 -21 28 15 25 31
-13 68 -32 31 -56 40 -70 25z"/>
<path d="M2534 3057 c-3 -8 -4 -34 -2 -58 3 -39 6 -44 28 -44 24 0 25 3 25 55
0 49 -2 55 -23 58 -12 2 -24 -3 -28 -11z"/>
<path d="M1861 2995 c-33 -29 -42 -69 -16 -79 22 -8 87 52 83 78 -4 30 -31 31
-67 1z"/>
<path d="M3197 3013 c-16 -15 -5 -43 28 -72 39 -34 65 -32 65 4 0 37 -72 90
-93 68z"/>
<path d="M1720 2855 c-28 -29 -33 -39 -23 -53 12 -20 40 -17 66 6 31 27 40 51
26 68 -18 22 -32 17 -69 -21z"/>
<path d="M3331 2876 c-16 -19 -1 -47 39 -76 25 -18 34 -19 45 -10 22 18 18 33
-18 68 -37 36 -49 39 -66 18z"/>
<path d="M2534 2867 c-3 -8 -4 -34 -2 -58 3 -39 6 -44 28 -44 24 0 25 3 25 55
0 49 -2 55 -23 58 -12 2 -24 -3 -28 -11z"/>
<path d="M1585 2727 c-35 -35 -38 -60 -9 -71 21 -8 86 53 82 78 -5 34 -35 31
-73 -7z"/>
<path d="M3467 2753 c-24 -23 45 -109 77 -97 27 10 25 34 -5 69 -29 33 -57 44
-72 28z"/>
<path d="M1256 2690 c-71 -22 -137 -91 -164 -169 -44 -127 39 -277 174 -317
123 -35 233 15 293 135 62 124 13 273 -112 337 -37 20 -149 28 -191 14z"/>
<path d="M3706 2690 c-108 -35 -186 -153 -172 -262 15 -108 85 -195 180 -223
62 -19 80 -19 145 1 61 18 123 70 154 128 29 55 30 165 3 220 -24 47 -74 100
-119 122 -37 20 -149 28 -191 14z"/>
<path d="M2537 2684 c-14 -14 -7 -101 8 -114 27 -23 46 6 43 64 -3 43 -6 51
-23 54 -12 2 -24 0 -28 -4z"/>
<path d="M2543 2493 c-7 -2 -13 -14 -13 -26 0 -17 -11 -26 -48 -39 -58 -21
-124 -76 -146 -122 -16 -33 -16 -34 -58 -24 -35 7 -45 6 -55 -7 -16 -23 -6
-44 26 -51 61 -14 61 -14 61 -57 1 -55 28 -113 76 -159 51 -49 100 -68 174
-68 74 0 123 19 174 68 48 46 75 104 76 158 0 43 11 54 49 54 10 0 25 8 34 18
14 16 15 21 3 37 -11 16 -18 17 -55 8 l-42 -11 -19 38 c-25 49 -82 96 -142
118 -37 13 -48 22 -48 38 0 17 -22 39 -33 33 -1 0 -8 -3 -14 -6z"/>
<path d="M1659 2394 c-19 -23 0 -47 45 -57 45 -11 66 -4 66 22 0 35 -88 63
-111 35z"/>
<path d="M3402 2400 c-42 -10 -55 -22 -50 -46 3 -16 12 -18 48 -16 53 3 80 24
64 49 -13 21 -21 23 -62 13z"/>
<path d="M1851 2357 c-6 -6 -11 -19 -11 -29 0 -19 26 -29 82 -31 27 -2 34 2
36 20 4 24 -14 37 -64 46 -18 3 -36 1 -43 -6z"/>
<path d="M3214 2360 c-42 -9 -54 -18 -54 -40 0 -23 22 -31 63 -23 40 7 57 20
57 43 0 21 -24 29 -66 20z"/>
<path d="M2043 2323 c-7 -3 -13 -15 -13 -29 0 -18 7 -25 28 -30 15 -3 35 -8
45 -11 38 -10 63 38 30 55 -24 12 -75 21 -90 15z"/>
<path d="M3022 2320 c-46 -11 -60 -26 -45 -48 12 -19 77 -19 100 0 18 15 16
45 -3 52 -9 3 -16 6 -17 5 -1 -1 -17 -5 -35 -9z"/>
<path d="M2170 996 l0 -134 -67 -15 c-38 -9 -207 -43 -378 -77 -170 -34 -318
-63 -327 -66 -15 -5 -18 -18 -18 -85 l0 -79 1180 0 1180 0 0 80 c0 74 -1 80
-22 85 -13 3 -180 37 -371 75 -192 39 -359 73 -373 76 -24 6 -24 7 -24 140 l0
134 -390 0 -390 0 0 -134z"/>
</g>
</svg>
