<svg width="113" height="113" viewBox="0 0 113 113" fill="none" xmlns="http://www.w3.org/2000/svg">
<path d="M1.80616 52.1096L42.6144 11.3004C43.7794 10.1355 45.3319 9.49605 46.9874 9.49605C48.6447 9.49605 50.1964 10.1364 51.3613 11.3004L55.0664 15.0064C56.2304 16.1694 56.8716 17.7229 56.8716 19.3793C56.8716 21.0348 56.2304 22.6407 55.0664 23.8038L31.2594 47.6631H106.895C110.305 47.6631 113 50.3328 113 53.7439V58.9832C113 62.3943 110.305 65.3332 106.895 65.3332H30.9893L55.0655 89.3258C56.2295 90.4907 56.8707 92.0019 56.8707 93.6583C56.8707 95.3129 56.2295 96.8462 55.0655 98.0102L51.3604 101.704C50.1955 102.869 48.6438 103.504 46.9865 103.504C45.331 103.504 43.7784 102.861 42.6135 101.696L1.80524 60.8877C0.637589 59.7191 -0.00457764 58.1592 1.52588e-05 56.5009C-0.00365448 54.8372 0.637589 53.2763 1.80616 52.1096Z" fill="white"/>
</svg>
