<svg width="113" height="113" viewBox="0 0 113 113" fill="none" xmlns="http://www.w3.org/2000/svg">
<path d="M111.194 52.1096L70.3856 11.3004C69.2206 10.1355 67.6681 9.49605 66.0126 9.49605C64.3553 9.49605 62.8036 10.1364 61.6387 11.3004L57.9336 15.0064C56.7696 16.1694 56.1284 17.7229 56.1284 19.3793C56.1284 21.0348 56.7696 22.6407 57.9336 23.8038L81.7406 47.6631H6.10471C2.69452 47.6631 0 50.3328 0 53.7439V58.9832C0 62.3943 2.69452 65.3332 6.10471 65.3332H82.0107L57.9345 89.3258C56.7705 90.4907 56.1293 92.0019 56.1293 93.6583C56.1293 95.3129 56.7705 96.8462 57.9345 98.0102L61.6396 101.704C62.8045 102.869 64.3562 103.504 66.0135 103.504C67.669 103.504 69.2216 102.861 70.3865 101.696L111.195 60.8877C112.362 59.7191 113.005 58.1591 113 56.5009C113.004 54.8372 112.362 53.2763 111.194 52.1096Z" fill="white"/>
</svg>
